PathFileType  4	(X/Y/Z) /Users/kristensteudel/Documents/NMBL_Research/BertecForceProcessing/anc_files/
DataRate	CameraRate	NumFrames	NumMarkers	Units	OrigDataRate	OrigDataStartFrame	OrigNumFrames
  200.0		  200.0		    9		     46		 mm	  200.0	      272	    724
Frame#	Time	r_knee			r_shank_antsup			r_ankle			r_calc			r_5meta			r_toe			L_knee			L_shank_antsup			L_ankle			L_calc			L_5meta			L_toe			r_sh2			r_sh3			r_sh4			L_sh2			L_sh3			r_thigh1			r_thigh2			r_thigh3			r_thigh4			r_thigh5			L_thigh1			L_thigh2			L_thigh3			L_thigh4			r.ASIS			r.PSIS			L.ASIS			L.PSIS			C7			R_Shoulder			L_Shoulder			Sternum			R_humerus			R_elbow_med			R_elbow_lat			R_forearm			R_wrist_radius			R_wrist_ulna			L_humerus			L_elbow_med			L_elbow_lat			L_forearm			L_wrist_radius			L_wrist_ulna			
		X1	Y1	Z1	X2	Y2	Z2	X3	Y3	Z3	X4	Y4	Z4	X5	Y5	Z5	X6	Y6	Z6	X7	Y7	Z7	X8	Y8	Z8	X9	Y9	Z9	X10	Y10	Z10	X11	Y11	Z11	X12	Y12	Z12	X13	Y13	Z13	X14	Y14	Z14	X15	Y15	Z15	X16	Y16	Z16	X17	Y17	Z17	X18	Y18	Z18	X19	Y19	Z19	X20	Y20	Z20	X21	Y21	Z21	X22	Y22	Z22	X23	Y23	Z23	X24	Y24	Z24	X25	Y25	Z25	X26	Y26	Z26	X27	Y27	Z27	X28	Y28	Z28	X29	Y29	Z29	X30	Y30	Z30	X31	Y31	Z31	X32	Y32	Z32	X33	Y33	Z33	X34	Y34	Z34	X35	Y35	Z35	X36	Y36	Z36	X37	Y37	Z37	X38	Y38	Z38	X39	Y39	Z39	X40	Y40	Z40	X41	Y41	Z41	X42	Y42	Z42	X43	Y43	Z43	X44	Y44	Z44	X45	Y45	Z45	X46	Y46	Z46	

272	1.35500	550.485	606.129	-144.930	475.870	509.201	-139.105	188.456	334.053	-168.130	156.773	405.049	-233.965	109.986	205.086	-166.601	155.817	168.191	-218.166	1022.434	617.588	-450.683	1047.425	492.671	-454.676	1000.775	175.396	-414.215	946.694	147.593	-356.884	1152.910	119.786	-439.623	1188.998	145.617	-375.071	377.444	441.363	-142.978	433.035	567.584	-121.247	333.850	511.273	-140.897	958.016	500.714	-463.108	959.396	380.142	-447.010	749.050	741.652	-123.479	677.893	653.050	-143.995	625.057	651.076	-127.802	655.968	800.938	-94.855	590.531	708.202	-126.403	993.814	858.244	-461.188	1059.249	734.977	-439.574	892.108	800.852	-485.137	959.085	684.006	-451.410	884.025	1012.231	-163.294	685.558	1106.342	-219.425	867.737	1042.492	-426.952	677.982	1107.327	-325.534	773.195	1578.747	-276.430	858.150	1557.506	-109.464	763.542	1569.864	-458.652	922.375	1489.798	-325.207	837.659	1350.957	-0.491	708.874	1236.754	-8.351	742.472	1274.369	70.810	895.511	1268.241	-15.607	986.054	1256.388	-83.008	989.832	1214.771	-52.844	606.693	1397.963	-537.813	486.948	1325.600	-453.479	501.310	1369.101	-542.572	631.674	1273.973	-554.749	741.876	1244.325	-513.105	703.372	1192.002	-546.741
273	1.36000	552.081	606.458	-144.301	473.482	511.736	-138.334	177.841	352.635	-168.263	147.568	422.983	-233.188	96.903	224.268	-165.442	142.007	186.065	-217.459	1016.782	612.159	-449.741	1047.046	489.210	-454.743	1021.843	169.700	-414.076	970.375	139.579	-355.558	1176.411	120.476	-441.031	1212.121	149.002	-377.418	372.013	448.604	-142.559	433.420	571.940	-120.314	331.866	520.437	-140.265	957.384	490.922	-461.302	967.929	371.143	-444.630	750.963	742.802	-124.242	680.214	653.796	-144.253	627.408	651.296	-127.570	657.687	801.432	-95.036	592.473	708.245	-125.973	990.946	853.186	-461.915	1054.823	729.611	-438.830	887.788	797.348	-483.315	953.803	679.736	-449.533	884.521	1013.889	-162.851	685.688	1108.718	-219.140	867.013	1041.985	-426.498	678.259	1108.507	-325.788	773.705	1579.793	-275.653	858.168	1558.515	-109.968	762.990	1570.583	-459.033	922.315	1491.043	-325.813	838.023	1352.742	0.520	708.971	1238.345	-7.555	743.055	1276.255	71.501	895.409	1269.656	-15.796	985.447	1257.490	-84.080	989.411	1215.854	-53.753	605.073	1399.239	-537.035	486.440	1326.363	-452.086	499.872	1370.159	-541.229	630.210	1275.307	-554.145	741.058	1245.226	-512.967	702.293	1193.182	-546.519
274	1.36500	554.303	606.300	-143.897	471.206	514.467	-137.532	168.753	369.986	-168.081	141.681	441.251	-232.969	84.788	243.986	-164.580	128.422	204.659	-216.874	1010.451	606.015	-448.918	1046.273	485.521	-454.428	1041.357	165.057	-413.661	992.571	133.495	-354.204	1197.805	121.353	-441.965	1233.176	152.848	-379.721	366.834	456.263	-142.326	433.971	576.561	-119.864	330.113	530.048	-140.170	956.815	481.331	-460.304	975.181	362.772	-442.165	753.386	743.432	-125.092	683.081	653.880	-144.962	630.618	650.895	-127.747	659.840	801.360	-95.281	595.041	707.530	-125.579	988.233	847.511	-462.260	1049.889	723.120	-438.253	883.884	793.347	-482.312	948.615	674.970	-448.240	885.053	1015.522	-162.494	685.914	1110.568	-219.646	866.667	1041.404	-425.818	678.385	1109.127	-325.976	773.784	1580.480	-276.181	858.181	1559.421	-110.478	763.046	1570.443	-459.339	922.284	1492.033	-326.328	838.259	1354.241	1.566	708.860	1239.918	-7.049	743.188	1277.705	71.842	895.135	1270.373	-16.042	984.481	1257.809	-84.965	988.847	1216.369	-54.482	603.887	1400.086	-536.462	486.114	1326.635	-450.921	498.974	1370.704	-539.951	629.129	1276.057	-553.615	740.404	1245.740	-513.047	701.653	1193.690	-546.428
275	1.37000	557.014	605.621	-143.756	469.063	517.228	-136.544	160.874	387.342	-167.885	136.711	459.426	-232.394	73.576	264.440	-163.956	115.417	224.047	-217.342	1004.183	599.508	-448.306	1045.522	481.702	-454.180	1058.898	161.544	-412.876	1012.610	128.934	-352.079	1217.100	122.776	-442.836	1251.864	157.195	-381.748	361.721	464.347	-143.612	434.701	581.062	-119.427	328.972	539.822	-140.749	956.125	472.947	-459.644	980.981	355.089	-439.666	756.215	743.517	-125.990	686.536	653.313	-145.653	634.280	650.039	-128.144	662.431	800.584	-95.547	598.305	706.301	-125.257	985.499	841.112	-462.100	1044.943	715.986	-437.342	879.978	789.312	-481.810	942.242	669.363	-447.940	885.483	1016.984	-162.121	685.160	1111.310	-218.647	866.231	1040.854	-425.205	678.353	1109.406	-326.005	773.997	1581.257	-276.879	858.108	1560.082	-110.963	763.500	1570.412	-459.994	922.328	1492.701	-326.833	838.334	1355.526	2.490	708.464	1241.441	-6.754	743.007	1279.130	71.959	894.683	1270.577	-16.290	983.693	1257.459	-85.698	987.800	1216.090	-55.043	603.095	1400.468	-536.003	486.331	1326.333	-449.785	498.235	1370.613	-538.966	628.617	1276.185	-553.191	740.151	1245.630	-513.011	701.381	1193.754	-546.553
276	1.37500	560.466	604.462	-143.765	467.543	520.118	-135.524	155.675	404.817	-167.741	133.455	478.390	-231.593	63.648	285.386	-163.759	103.388	243.615	-217.025	997.978	592.902	-448.070	1044.642	477.964	-453.907	1074.288	158.968	-411.438	1030.297	126.030	-349.667	1233.718	124.525	-443.180	1268.198	161.825	-383.018	357.597	472.598	-143.830	435.976	585.569	-118.866	328.680	549.528	-141.592	955.402	465.840	-458.164	985.396	348.054	-437.148	759.567	743.342	-127.013	690.756	652.528	-145.787	638.727	648.726	-129.461	665.533	799.408	-95.708	602.001	704.427	-125.004	982.985	834.023	-461.317	1039.522	708.052	-436.482	876.529	785.013	-481.678	936.385	663.814	-448.278	885.881	1018.231	-161.828	685.195	1111.673	-218.552	865.743	1040.226	-424.593	678.249	1109.328	-326.039	774.375	1581.847	-277.605	857.793	1560.411	-111.641	764.178	1570.095	-460.746	922.352	1493.037	-327.289	838.345	1356.597	3.447	707.624	1242.748	-6.752	742.553	1280.288	71.946	894.110	1270.259	-16.582	982.600	1256.269	-86.310	986.838	1215.313	-55.358	602.656	1400.314	-535.774	486.903	1325.472	-449.242	498.047	1369.997	-538.420	628.537	1275.754	-553.066	740.425	1244.970	-513.187	701.484	1193.242	-546.779
277	1.38000	564.376	602.758	-143.885	466.853	522.817	-134.456	151.465	422.482	-167.209	131.770	497.168	-231.228	54.715	306.814	-163.929	92.353	263.636	-218.491	991.924	586.063	-448.550	1042.700	474.641	-453.743	1087.278	157.686	-409.687	1045.240	124.606	-346.893	1247.785	126.930	-442.915	1281.705	166.798	-384.430	354.869	480.728	-143.909	438.173	589.933	-118.405	329.661	558.932	-142.557	953.911	459.831	-456.700	988.494	341.628	-434.627	763.431	742.582	-128.050	695.144	651.109	-146.424	643.360	647.029	-129.923	669.022	797.660	-95.528	606.110	702.219	-124.774	980.216	826.684	-459.988	1034.630	699.823	-435.446	873.000	780.659	-482.235	929.674	657.822	-448.951	886.373	1019.195	-161.703	685.271	1111.711	-218.444	865.262	1039.613	-424.129	678.024	1109.110	-325.897	775.229	1582.039	-278.456	857.693	1560.471	-112.221	764.899	1569.533	-461.528	922.374	1492.918	-327.769	838.230	1357.378	4.161	706.500	1243.879	-6.971	741.810	1281.178	71.816	893.379	1269.567	-16.815	981.677	1254.452	-86.767	985.428	1213.670	-55.523	602.733	1399.752	-535.805	487.443	1324.212	-448.907	498.086	1368.783	-535.952	628.893	1274.758	-553.092	741.055	1243.929	-513.240	701.964	1192.104	-547.150
278	1.38500	568.684	600.682	-144.211	467.502	525.228	-133.280	148.307	440.225	-167.043	131.992	515.933	-230.830	46.849	328.658	-164.262	82.103	283.986	-219.816	985.950	579.934	-448.664	1040.173	471.684	-453.834	1097.582	157.113	-407.385	1058.148	123.925	-343.337	1258.869	129.465	-442.296	1292.467	171.633	-385.415	353.582	488.591	-143.920	441.892	593.754	-118.366	332.337	567.832	-143.437	951.479	454.223	-455.249	990.342	335.770	-432.116	767.580	741.321	-128.878	699.996	649.315	-146.172	648.339	644.816	-130.154	672.954	795.356	-95.407	610.598	699.519	-124.553	977.013	818.921	-458.403	1028.073	690.808	-434.474	869.523	776.333	-483.262	922.288	651.600	-449.902	887.002	1019.718	-161.734	685.367	1111.556	-218.092	863.547	1038.358	-423.542	677.561	1108.597	-325.863	775.982	1581.997	-279.292	857.515	1560.271	-112.989	765.602	1568.583	-462.204	922.420	1492.420	-328.150	837.917	1357.986	4.660	705.223	1244.945	-7.336	740.771	1281.959	71.331	892.323	1268.220	-17.144	980.377	1252.009	-86.971	983.703	1211.337	-55.462	603.196	1398.611	-536.094	488.660	1322.482	-448.660	498.533	1367.155	-535.863	629.685	1273.171	-553.240	741.881	1242.053	-513.501	703.025	1190.646	-547.636
279	1.39000	573.881	597.801	-144.719	469.659	526.669	-133.114	146.601	457.867	-166.816	134.091	534.388	-230.492	40.289	351.158	-164.759	74.077	305.529	-219.377	980.056	573.728	-448.354	1036.365	468.854	-453.776	1105.268	156.755	-404.841	1068.156	123.874	-339.900	1267.347	131.557	-441.056	1300.555	176.217	-385.964	354.103	495.751	-143.946	447.403	596.647	-118.906	336.699	575.884	-143.926	947.974	449.144	-453.430	991.006	330.441	-429.631	771.878	739.760	-129.465	705.166	646.878	-146.500	653.448	642.101	-130.200	676.797	792.619	-95.172	615.322	696.296	-124.403	973.228	811.078	-456.875	1020.693	681.886	-433.632	865.485	771.899	-484.669	914.735	645.474	-450.977	887.636	1019.811	-161.772	685.670	1110.682	-218.112	863.002	1037.720	-423.266	677.164	1107.542	-325.585	777.255	1581.362	-280.290	857.424	1559.728	-113.671	766.140	1567.406	-462.793	922.503	1491.480	-328.481	837.457	1358.402	4.929	703.599	1245.642	-7.820	739.462	1282.488	70.965	891.145	1266.469	-17.329	979.186	1248.717	-87.021	981.766	1208.259	-55.169	603.968	1397.021	-536.662	489.948	1320.271	-448.888	499.560	1364.971	-536.152	631.047	1271.035	-553.560	743.224	1240.033	-513.762	704.485	1188.750	-548.334
280	1.39500	579.771	594.158	-145.120	472.896	528.185	-134.883	146.536	475.301	-166.701	138.309	552.412	-230.077	35.451	373.916	-165.207	66.995	326.836	-220.111	974.019	567.766	-447.604	1031.908	466.005	-453.542	1110.677	156.080	-402.635	1075.454	124.113	-336.545	1273.422	131.972	-439.617	1306.175	179.635	-386.610	356.482	502.142	-144.205	454.415	598.642	-119.595	342.605	582.904	-143.996	944.316	444.057	-449.768	990.554	325.600	-427.188	776.291	737.662	-129.577	710.299	643.965	-146.062	658.624	638.902	-130.267	680.747	789.534	-94.697	620.019	692.754	-124.158	968.802	803.573	-455.779	1013.050	673.182	-433.356	861.400	767.503	-486.324	906.656	639.280	-451.881	888.207	1019.385	-161.887	686.201	1109.376	-217.992	862.467	1036.824	-423.097	676.669	1106.527	-325.195	777.496	1580.863	-280.808	857.332	1558.910	-114.392	766.816	1565.942	-463.370	922.548	1490.067	-328.778	836.826	1358.666	5.147	701.627	1246.355	-8.536	737.626	1282.728	70.182	890.086	1264.490	-17.213	977.835	1244.823	-86.706	979.598	1204.562	-54.641	605.267	1394.864	-537.384	491.559	1317.611	-449.465	500.921	1362.105	-536.476	632.630	1268.373	-554.065	744.753	1237.499	-514.206	706.318	1186.110	-549.016
